<svg version="1.0" xmlns="http://www.w3.org/2000/svg" class="splashscreen-animation"
 width="90.000000pt" height="90.000000pt" viewBox="0 0 90.000000 90.000000"
 preserveAspectRatio="xMidYMid meet">

<g stroke-linecap="round" transform="translate(0.000000,90.000000) scale(0.100000,-0.100000)"
fill="#0AD6CF" stroke="none">
<path d="M380 864 c-25 -15 -74 -42 -110 -60 -36 -19 -103 -55 -150 -82 l-85
-48 -2 -212 -2 -212 117 -69 c64 -38 131 -77 148 -87 165 -98 147 -95 232 -39
30 19 55 35 57 35 2 0 64 36 139 80 l135 81 -2 212 -2 212 -80 42 c-160 84
-335 173 -343 173 -4 0 -27 -12 -52 -26z m117 -25 c29 -13 53 -26 53 -29 0 -3
-25 -18 -55 -33 l-55 -27 -55 27 c-30 15 -55 30 -55 33 1 6 103 58 110 55 3 0
29 -12 57 -26z m-150 -76 c51 -27 66 -43 41 -43 -7 0 -20 4 -27 9 -16 10 -39
1 -66 -25 -15 -15 -19 -15 -56 1 -22 10 -42 22 -45 26 -4 7 79 57 96 59 3 0
28 -12 57 -27z m293 2 c28 -14 50 -27 50 -30 0 -5 -84 -55 -93 -55 -4 0 -7 8
-7 19 0 24 -48 44 -86 35 -16 -4 -27 -4 -24 -1 8 9 94 57 103 57 4 0 30 -11
57 -25z m-194 -60 c-11 -8 -22 -12 -25 -9 -6 6 19 24 34 24 6 -1 1 -7 -9 -15z
m108 7 c2 -4 -24 -23 -59 -42 l-64 -35 -57 28 c-43 21 -54 31 -45 40 8 8 23 5
57 -11 l46 -23 42 25 c42 26 71 32 80 18z m-342 -28 l52 -26 -40 -24 c-50 -30
-58 -30 -118 5 l-49 29 39 21 c50 26 55 26 116 -5z m577 2 l44 -23 -58 -31
-57 -31 -49 25 c-27 13 -49 26 -49 29 0 8 94 54 110 54 8 0 35 -10 59 -23z
m-221 -16 c-6 -18 -128 -83 -128 -68 0 7 26 28 58 45 61 35 76 39 70 23z
m-152 -61 c8 -13 7 -13 -58 21 -27 13 -48 28 -48 32 0 11 96 -38 106 -53z
m274 -19 c0 -3 -27 -20 -60 -38 l-60 -33 -50 28 c-28 15 -50 30 -50 33 0 3 26
19 58 35 l57 31 53 -25 c28 -14 52 -28 52 -31z m-579 23 l49 -26 0 -55 0 -54
-52 30 c-52 29 -53 30 -56 81 -2 28 0 51 4 51 3 0 28 -12 55 -27z m242 -4 c31
-17 57 -32 57 -35 0 -2 -21 -14 -47 -28 l-48 -24 -57 32 c-32 17 -58 34 -58
38 0 9 69 47 86 48 6 0 36 -14 67 -31z m487 -19 c0 -48 -1 -50 -45 -75 -24
-15 -49 -24 -55 -20 -5 3 -10 25 -10 48 0 40 3 43 48 68 26 15 50 27 55 28 4
0 7 -21 7 -49z m-591 -55 l61 -36 0 -50 c0 -28 -3 -49 -7 -47 -61 29 -63 32
-63 64 0 27 -6 36 -30 49 -18 9 -30 23 -30 35 0 11 2 20 4 20 3 0 32 -16 65
-35z m461 5 c0 -27 -3 -30 -32 -30 -18 0 -45 -11 -65 -26 -31 -24 -33 -24 -33
-5 0 14 18 31 58 55 31 19 60 35 65 35 4 1 7 -12 7 -29z m-215 -2 c25 -12 45
-25 45 -30 0 -4 -20 -19 -45 -34 l-45 -26 -54 28 c-30 16 -52 32 -50 36 7 11
76 47 91 48 7 0 33 -10 58 -22z m-384 -55 l49 -28 0 -58 0 -57 -52 30 c-53 29
-53 29 -56 85 -2 30 0 55 4 55 3 0 28 -12 55 -27z m729 -26 c0 -51 -1 -54 -39
-75 -37 -21 -38 -21 -55 -3 -27 29 -16 61 32 98 24 18 48 33 53 33 5 0 9 -24
9 -53z m-636 37 c13 -5 16 -24 16 -99 l0 -94 42 -23 c24 -13 44 -31 46 -41 5
-24 -9 -21 -72 16 l-56 32 0 108 c0 59 2 107 4 107 2 0 11 -3 20 -6z m234
-114 c2 -27 0 -50 -4 -50 -3 0 -28 12 -55 27 l-49 26 0 54 0 53 53 -30 c51
-29 52 -31 55 -80z m287 100 c12 -19 -15 -40 -42 -34 -16 4 -30 0 -43 -11 -20
-18 -27 -44 -12 -46 4 0 26 -1 50 -3 51 -3 65 -18 58 -66 -9 -65 -115 -125
-153 -87 -9 9 -13 23 -9 32 6 17 18 17 57 1 20 -9 69 30 69 55 0 16 -7 19 -55
19 -45 0 -56 4 -65 21 -25 46 42 129 105 129 19 0 37 -5 40 -10z m-165 -36 c0
-49 -14 -70 -60 -94 l-40 -20 0 49 c0 48 2 51 43 75 23 14 45 26 50 26 4 0 7
-16 7 -36z m128 -20 c34 -10 26 -24 -13 -24 -33 0 -43 8 -28 23 8 8 12 8 41 1z
m-380 -98 c2 -26 0 -46 -5 -44 -63 30 -63 30 -63 81 l0 49 33 -19 c28 -17 32
-25 35 -67z m-197 17 l49 -26 0 -59 0 -60 -53 31 -52 30 -3 55 c-2 31 0 56 4
56 3 0 28 -12 55 -27z m729 -26 l0 -52 -52 -32 -53 -32 -3 30 c-2 16 4 39 12
51 9 12 16 29 16 38 0 16 45 49 68 50 8 0 12 -17 12 -53z m-402 -73 l3 -56
-38 23 c-21 12 -46 28 -55 33 -14 8 -18 24 -18 64 l0 52 53 -30 52 -29 3 -57z
m116 47 c-4 -14 -7 -29 -6 -33 2 -8 -68 -58 -80 -58 -5 0 -8 24 -8 53 0 52 1
52 48 78 45 25 47 26 50 7 2 -11 0 -32 -4 -47z m106 7 c-23 -18 -25 -18 -37
-3 -7 10 -19 15 -28 12 -8 -4 -15 -1 -15 6 0 8 16 11 52 8 l52 -3 -24 -20z
m-352 -148 l3 -42 -48 28 c-72 41 -83 53 -83 91 l0 35 63 -35 c59 -34 62 -37
65 -77z m115 26 c13 -9 17 -25 17 -74 0 -72 0 -71 -69 -27 l-41 25 0 66 0 66
38 -23 c20 -13 45 -28 55 -33z m287 30 c0 -18 -13 -30 -59 -55 -32 -17 -62
-31 -65 -31 -3 0 -6 20 -6 44 0 40 2 43 23 39 13 -3 39 2 58 10 46 21 49 20
49 -7z m-150 -48 l0 -63 -50 -28 -51 -29 3 68 c3 68 3 68 43 91 22 12 43 23
48 23 4 0 7 -28 7 -62z"/>
</g>
</svg>
